<svg width="200" height="200" fill="none" xmlns="http://www.w3.org/2000/svg"><path d="M154.762 182.143c15.122 0 27.381-12.259 27.381-27.381s-12.259-27.381-27.381-27.381-27.381 12.259-27.381 27.381 12.259 27.381 27.381 27.381Z" stroke="#fff" stroke-width="16.667" stroke-linecap="round" stroke-linejoin="round"/><path d="M45.5 53a7.5 7.5 0 1 0 0-15 7.5 7.5 0 0 0 0 15Zm110 109a7.5 7.5 0 1 0 0-15 7.5 7.5 0 0 0 0 15Z" fill="#FBBF24"/><path d="M45.238 72.619c15.122 0 27.381-12.259 27.381-27.38 0-15.123-12.259-27.382-27.38-27.382-15.123 0-27.382 12.259-27.382 27.381S30.116 72.62 45.238 72.62Zm63.889-27.381h27.381a18.253 18.253 0 0 1 18.254 18.254v63.889" stroke="#fff" stroke-width="16.667" stroke-linecap="round" stroke-linejoin="round"/><path d="M90.873 154.762h-27.38a18.251 18.251 0 0 1-18.255-18.254V72.619" stroke="#fff" stroke-width="16.667" stroke-linecap="round" stroke-linejoin="round"/><path d="M71.981 135v-11.776h15.488V87.512c0-2.816-1.365-4.224-4.096-4.224H73.261V71.512h15.232c3.499 0 6.357 1.024 8.576 3.072 2.219 1.963 3.328 4.736 3.328 8.32v1.536h.64c.939-4.779 2.944-8.363 6.016-10.752 3.157-2.475 7.723-3.712 13.696-3.712h9.856v14.336h-13.824c-5.035 0-8.917 1.75-11.648 5.248-2.731 3.499-4.096 7.68-4.096 12.544v21.12h19.712V135H71.981Z" fill="#fff"/></svg>