<svg xmlns="http://www.w3.org/2000/svg" width="400" height="400" fill="none"><path fill="#fff" fill-opacity=".06" d="M385.716 93.027a214.936 214.936 0 0 1 3.236 5.812 7.136 7.136 0 0 1-3.236-5.812ZM346.606 43.714a215.594 215.594 0 0 1 9.68 9.68 7.143 7.143 0 1 1-9.68-9.68ZM301.161 11.048a213.967 213.967 0 0 1 5.812 3.236 7.138 7.138 0 0 1-5.812-3.236ZM93.027 14.284a214.1 214.1 0 0 1 5.812-3.236 7.137 7.137 0 0 1-5.812 3.236ZM43.714 53.394a215.663 215.663 0 0 1 9.68-9.68 7.143 7.143 0 1 1-9.68 9.68ZM11.048 98.839a214.1 214.1 0 0 1 3.236-5.812 7.137 7.137 0 0 1-3.236 5.812ZM388.952 301.161a214.801 214.801 0 0 1-3.236 5.812 7.138 7.138 0 0 1 3.236-5.812ZM356.286 346.606a7.143 7.143 0 1 0-9.68 9.68 215.526 215.526 0 0 0 9.68-9.68ZM306.973 385.716a7.138 7.138 0 0 0-5.812 3.236 214.801 214.801 0 0 0 5.812-3.236ZM98.839 388.952a7.136 7.136 0 0 0-5.812-3.236 214.936 214.936 0 0 0 5.812 3.236ZM53.394 356.286a7.143 7.143 0 1 0-9.68-9.68 215.594 215.594 0 0 0 9.68 9.68ZM14.284 306.973a7.138 7.138 0 0 0-3.236-5.812 213.967 213.967 0 0 0 3.236 5.812ZM142.857 7.143a7.143 7.143 0 1 1-14.286 0 7.143 7.143 0 0 1 14.286 0ZM185.714 7.143a7.143 7.143 0 1 1-14.286 0 7.143 7.143 0 0 1 14.286 0ZM228.571 7.143a7.143 7.143 0 1 1-14.285 0 7.143 7.143 0 0 1 14.285 0ZM271.429 7.143a7.143 7.143 0 1 1-14.286 0 7.143 7.143 0 0 1 14.286 0ZM100 50a7.143 7.143 0 1 1-14.286 0A7.143 7.143 0 0 1 100 50ZM142.857 50a7.143 7.143 0 1 1-14.286 0 7.143 7.143 0 0 1 14.286 0ZM185.714 50a7.143 7.143 0 1 1-14.286 0 7.143 7.143 0 0 1 14.286 0ZM228.571 50a7.143 7.143 0 1 1-14.285 0 7.143 7.143 0 0 1 14.285 0ZM271.429 50a7.143 7.143 0 1 1-14.286 0 7.143 7.143 0 0 1 14.286 0ZM314.286 50A7.143 7.143 0 1 1 300 50a7.143 7.143 0 0 1 14.286 0ZM57.143 92.857a7.143 7.143 0 1 1-14.286 0 7.143 7.143 0 0 1 14.286 0ZM100 92.857a7.143 7.143 0 1 1-14.286 0 7.143 7.143 0 0 1 14.286 0ZM142.857 92.857a7.143 7.143 0 1 1-14.286 0 7.143 7.143 0 0 1 14.286 0ZM185.714 92.857a7.143 7.143 0 1 1-14.286 0 7.143 7.143 0 0 1 14.286 0ZM228.571 92.857a7.143 7.143 0 1 1-14.285 0 7.143 7.143 0 0 1 14.285 0ZM271.429 92.857a7.143 7.143 0 1 1-14.286 0 7.143 7.143 0 0 1 14.286 0ZM314.286 92.857a7.143 7.143 0 1 1-14.286 0 7.143 7.143 0 0 1 14.286 0ZM357.143 92.857a7.143 7.143 0 1 1-14.286 0 7.143 7.143 0 0 1 14.286 0ZM14.286 135.714a7.143 7.143 0 1 1-14.286 0 7.143 7.143 0 0 1 14.286 0ZM57.143 135.714a7.143 7.143 0 1 1-14.286 0 7.143 7.143 0 0 1 14.286 0ZM100 135.714a7.143 7.143 0 1 1-14.286 0 7.143 7.143 0 0 1 14.286 0ZM142.857 135.714a7.143 7.143 0 1 1-14.286 0 7.143 7.143 0 0 1 14.286 0ZM185.714 135.714a7.143 7.143 0 1 1-14.286 0 7.143 7.143 0 0 1 14.286 0ZM228.571 135.714a7.143 7.143 0 1 1-14.285 0 7.143 7.143 0 0 1 14.285 0ZM271.429 135.714a7.143 7.143 0 1 1-14.286 0 7.143 7.143 0 0 1 14.286 0ZM314.286 135.714a7.143 7.143 0 1 1-14.286 0 7.143 7.143 0 0 1 14.286 0ZM357.143 135.714a7.143 7.143 0 1 1-14.286 0 7.143 7.143 0 0 1 14.286 0ZM400 135.714a7.143 7.143 0 1 1-14.286 0 7.143 7.143 0 0 1 14.286 0ZM14.286 178.571a7.143 7.143 0 1 1-14.286 0 7.143 7.143 0 0 1 14.286 0ZM57.143 178.571a7.143 7.143 0 1 1-14.286 0 7.143 7.143 0 0 1 14.286 0ZM100 178.571a7.143 7.143 0 1 1-14.286 0 7.143 7.143 0 0 1 14.286 0ZM142.857 178.571a7.143 7.143 0 1 1-14.286 0 7.143 7.143 0 0 1 14.286 0ZM185.714 178.571a7.143 7.143 0 1 1-14.286 0 7.143 7.143 0 0 1 14.286 0ZM228.571 178.571a7.143 7.143 0 1 1-14.285 0 7.143 7.143 0 0 1 14.285 0ZM271.429 178.571a7.143 7.143 0 1 1-14.286 0 7.143 7.143 0 0 1 14.286 0ZM314.286 178.571a7.143 7.143 0 1 1-14.286 0 7.143 7.143 0 0 1 14.286 0ZM357.143 178.571a7.143 7.143 0 1 1-14.286 0 7.143 7.143 0 0 1 14.286 0ZM400 178.571a7.143 7.143 0 1 1-14.286 0 7.143 7.143 0 0 1 14.286 0ZM14.286 221.429A7.143 7.143 0 1 1 0 221.428a7.143 7.143 0 0 1 14.286.001ZM57.143 221.429a7.143 7.143 0 1 1-14.286-.001 7.143 7.143 0 0 1 14.286.001ZM100 221.429a7.143 7.143 0 1 1-14.285-.001 7.143 7.143 0 0 1 14.285.001ZM142.857 221.429a7.143 7.143 0 1 1-14.285-.001 7.143 7.143 0 0 1 14.285.001ZM185.714 221.429a7.143 7.143 0 1 1-14.285-.001 7.143 7.143 0 0 1 14.285.001ZM228.571 221.429a7.143 7.143 0 1 1-14.285-.001 7.143 7.143 0 0 1 14.285.001ZM271.429 221.429a7.143 7.143 0 1 1-14.285-.001 7.143 7.143 0 0 1 14.285.001ZM314.286 221.429a7.143 7.143 0 1 1-14.285-.001 7.143 7.143 0 0 1 14.285.001ZM357.143 221.429a7.143 7.143 0 1 1-14.285-.001 7.143 7.143 0 0 1 14.285.001ZM400 221.429a7.143 7.143 0 1 1-14.285-.001 7.143 7.143 0 0 1 14.285.001ZM14.286 264.286a7.143 7.143 0 1 1-14.286 0 7.143 7.143 0 0 1 14.286 0ZM57.143 264.286a7.143 7.143 0 1 1-14.286 0 7.143 7.143 0 0 1 14.286 0ZM100 264.286a7.143 7.143 0 1 1-14.286 0 7.143 7.143 0 0 1 14.286 0ZM142.857 264.286a7.143 7.143 0 1 1-14.286 0 7.143 7.143 0 0 1 14.286 0ZM185.714 264.286a7.143 7.143 0 1 1-14.286 0 7.143 7.143 0 0 1 14.286 0ZM228.571 264.286a7.143 7.143 0 1 1-14.285 0 7.143 7.143 0 0 1 14.285 0ZM271.429 264.286a7.143 7.143 0 1 1-14.286 0 7.143 7.143 0 0 1 14.286 0ZM314.286 264.286a7.143 7.143 0 1 1-14.286 0 7.143 7.143 0 0 1 14.286 0ZM357.143 264.286a7.143 7.143 0 1 1-14.286 0 7.143 7.143 0 0 1 14.286 0ZM400 264.286a7.143 7.143 0 1 1-14.286 0 7.143 7.143 0 0 1 14.286 0ZM57.143 307.143a7.143 7.143 0 1 1-14.286 0 7.143 7.143 0 0 1 14.286 0ZM100 307.143a7.143 7.143 0 1 1-14.286 0 7.143 7.143 0 0 1 14.286 0ZM142.857 307.143a7.143 7.143 0 1 1-14.286 0 7.143 7.143 0 0 1 14.286 0ZM185.714 307.143a7.143 7.143 0 1 1-14.286 0 7.143 7.143 0 0 1 14.286 0ZM228.571 307.143a7.143 7.143 0 1 1-14.285 0 7.143 7.143 0 0 1 14.285 0ZM271.429 307.143a7.143 7.143 0 1 1-14.286 0 7.143 7.143 0 0 1 14.286 0ZM314.286 307.143a7.143 7.143 0 1 1-14.286 0 7.143 7.143 0 0 1 14.286 0ZM357.143 307.143a7.143 7.143 0 1 1-14.286 0 7.143 7.143 0 0 1 14.286 0ZM100 350a7.143 7.143 0 1 1-14.286 0A7.143 7.143 0 0 1 100 350ZM142.857 350a7.143 7.143 0 1 1-14.286 0 7.143 7.143 0 0 1 14.286 0ZM185.714 350a7.143 7.143 0 1 1-14.286 0 7.143 7.143 0 0 1 14.286 0ZM228.571 350a7.143 7.143 0 1 1-14.285 0 7.143 7.143 0 0 1 14.285 0ZM271.429 350a7.143 7.143 0 1 1-14.286 0 7.143 7.143 0 0 1 14.286 0ZM314.286 350A7.143 7.143 0 1 1 300 350a7.143 7.143 0 0 1 14.286 0ZM142.857 392.857a7.143 7.143 0 1 1-14.286 0 7.143 7.143 0 0 1 14.286 0ZM185.714 392.857a7.143 7.143 0 1 1-14.286 0 7.143 7.143 0 0 1 14.286 0ZM228.571 392.857a7.143 7.143 0 1 1-14.285 0 7.143 7.143 0 0 1 14.285 0ZM271.429 392.857a7.143 7.143 0 1 1-14.286 0 7.143 7.143 0 0 1 14.286 0Z"/></svg>
